<svg xmlns="http://www.w3.org/2000/svg" viewBox="0 0 512 512" role="img" aria-label="The Fun Part logo">
  <defs>
    <linearGradient id="funpart-gradient" x1="0%" y1="0%" x2="100%" y2="100%">
      <stop offset="0%" stop-color="#06c167" />
      <stop offset="100%" stop-color="#0a8662" />
    </linearGradient>
  </defs>
  <rect width="512" height="512" rx="104" fill="url(#funpart-gradient)" />
  <path
    d="M150 170h212c12.1 0 22 9.9 22 22v32c0 12.1-9.9 22-22 22H244v40h118c12.1 0 22 9.9 22 22v32c0 12.1-9.9 22-22 22H244v56c0 12.1-9.9 22-22 22h-46c-12.1 0-22-9.9-22-22V192c0-12.1 9.9-22 22-22Z"
    fill="#f6fff9"
  />
</svg>
