<svg xmlns="http://www.w3.org/2000/svg" viewBox="0 0 192 192" role="img" aria-label="The Fun Part logo">
  <defs>
    <linearGradient id="funpart-gradient" x1="0%" y1="0%" x2="100%" y2="100%">
      <stop offset="0%" stop-color="#06c167" />
      <stop offset="100%" stop-color="#0a8662" />
    </linearGradient>
  </defs>
  <rect width="192" height="192" rx="38" fill="url(#funpart-gradient)" />
  <path
    d="M54 60h84c4.4 0 8 3.6 8 8v10c0 4.4-3.6 8-8 8H93v12h33c4.4 0 8 3.6 8 8v10c0 4.4-3.6 8-8 8H93v20c0 4.4-3.6 8-8 8H75c-4.4 0-8-3.6-8-8V68c0-4.4 3.6-8 8-8Z"
    fill="#f6fff9"
  />
</svg>
